<svg id="Layer_1" data-name="Layer 1" xmlns="http://www.w3.org/2000/svg" viewBox="0 0 280 300"><defs><style>.cls-1,.cls-2{fill-rule:evenodd;}.cls-2,.cls-3{fill:#ed1c24;}</style></defs><path class="cls-1" d="M240.6,137.64a3.76,3.76,0,0,1,1.76.46,3.29,3.29,0,0,1,1.34,1.3,3.52,3.52,0,0,1,0,3.53,3.33,3.33,0,0,1-1.32,1.31,3.71,3.71,0,0,1-3.58,0,3.26,3.26,0,0,1-1.32-1.31,3.4,3.4,0,0,1-.48-1.75,3.58,3.58,0,0,1,.48-1.78,3.35,3.35,0,0,1,1.34-1.3A3.83,3.83,0,0,1,240.6,137.64Zm0,.59a3.16,3.16,0,0,0-1.48.38A2.65,2.65,0,0,0,238,139.7a2.95,2.95,0,0,0,0,2.93,2.76,2.76,0,0,0,1.12,1.1,3.11,3.11,0,0,0,3,0,2.8,2.8,0,0,0,1.11-1.1,2.92,2.92,0,0,0,.39-1.45,2.85,2.85,0,0,0-.41-1.48,2.59,2.59,0,0,0-1.11-1.09A3.16,3.16,0,0,0,240.6,138.23ZM239,143.12v-3.79h1.33a3,3,0,0,1,1,.11.91.91,0,0,1,.48.36,1,1,0,0,1-.12,1.28,1.21,1.21,0,0,1-.8.35,1.16,1.16,0,0,1,.33.2,4.49,4.49,0,0,1,.56.75l.48.74h-.76l-.34-.6a3.32,3.32,0,0,0-.66-.88.79.79,0,0,0-.5-.13h-.37v1.61Zm.62-2.13h.77a1.27,1.27,0,0,0,.73-.16.53.53,0,0,0,.2-.42.45.45,0,0,0-.1-.3.52.52,0,0,0-.26-.2,2.13,2.13,0,0,0-.62-.06h-.72Z"/><path class="cls-2" d="M180.2,152.91,177.46,144l-2.75,8.87Zm1.65,5.34h-8.79l-1.26,4.07h-7.91l9.44-24.68h8.49l9.39,24.68H183.1Z"/><polygon class="cls-1" points="87.6 137.64 94.84 137.64 104.25 151.26 104.25 137.64 111.58 137.64 111.58 162.32 104.25 162.32 94.9 148.77 94.9 162.32 87.6 162.32 87.6 137.64"/><path class="cls-1" d="M35.82,149.54a14.14,14.14,0,0,1,2.25-8.18,7.81,7.81,0,0,1,6.83-3.72h12v6.8H45.81c-1.31,0-2.85,2.34-2.85,5.54s1.54,5.62,2.85,5.62H56.92v6.72h-12a7.8,7.8,0,0,1-6.83-3.71,14.12,14.12,0,0,1-2.25-8.18Z"/><polygon class="cls-1" points="58.62 162.36 65.47 162.36 72 144.35 78.56 162.36 85.44 162.36 75.73 137.69 68.38 137.69 58.62 162.36"/><polygon class="cls-2" points="65.47 162.36 86.58 145 68.83 153.05 65.47 162.36"/><polygon class="cls-2" points="141.71 137.64 149.81 137.64 155.47 155.4 161.04 137.64 168.91 137.64 159.59 162.32 151.19 162.32 141.71 137.64"/><polygon class="cls-2" points="187.6 137.64 211.18 137.64 211.18 143.74 203.26 143.74 203.26 162.32 195.52 162.32 195.52 143.74 187.6 143.74 187.6 137.64"/><polygon class="cls-2" points="213.45 137.64 234.2 137.64 234.2 142.92 221.24 142.92 221.24 146.84 233.25 146.84 233.25 151.88 221.24 151.88 221.24 156.74 234.59 156.74 234.59 162.32 213.45 162.32 213.45 137.64"/><path class="cls-3" d="M131.5,144h-7.85c-1.45,0-3.19,2.37-3.19,6s1.74,6,3.19,6H132c1.46,0,3.19-2.36,3.19-6s-1.73-6-3.19-6Zm-17.39,5.51a14.22,14.22,0,0,1,2.25-8.18,7.83,7.83,0,0,1,6.83-3.71h9.3a7.82,7.82,0,0,1,6.83,3.71,14.22,14.22,0,0,1,2.25,8.18v.9a14.24,14.24,0,0,1-2.25,8.18,7.82,7.82,0,0,1-6.83,3.71h-9.3a7.83,7.83,0,0,1-6.83-3.71,14.24,14.24,0,0,1-2.25-8.18Z"/></svg>