<?xml version="1.0" encoding="UTF-8"?>
<svg id="Layer_2" xmlns="http://www.w3.org/2000/svg" version="1.1" viewBox="0 0 150 47.6">
  <!-- Generator: Adobe Illustrator 29.5.1, SVG Export Plug-In . SVG Version: 2.1.0 Build 141)  -->
  <defs>
    <style>
      .st0 {
        font-family: WelfareBold, Welfare;
        font-size: 18.4px;
      }

      .st0, .st1 {
        isolation: isolate;
      }

      .st0, .st2 {
        fill: #343333;
      }

      .st3 {
        fill: #e65225;
      }

      .st4 {
        fill: #e75325;
      }
    </style>
  </defs>
  <g id="Layer_1-2">
    <g>
      <g class="st1">
        <text class="st0" transform="translate(45.8 30.5)"><tspan x="0" y="0">BelayAb T</tspan></text>
      </g>
      <g class="st1">
        <text class="st0" transform="translate(115.9 30.5)"><tspan x="0" y="0">eam</tspan></text>
      </g>
    </g>
    <polygon class="st4" points="99 39.9 99 34.9 97.1 34.9 97.1 34.5 101.3 34.5 101.3 34.9 99.4 34.9 99.4 39.9 99 39.9"/>
    <g>
      <path class="st4" d="M103.4,39.9c-.4,0-.8,0-1.1-.3-.3-.2-.5-.4-.7-.7-.2-.3-.3-.7-.3-1.1s0-.8.2-1.1c.2-.3.4-.5.7-.7s.6-.3,1-.3.7,0,1,.3c.3.2.5.4.7.7.2.3.2.7.2,1.1s0,0,0,0c0,0,0,0,0,0h-3.5v-.3h3.3-.2c0-.2,0-.4-.2-.7-.1-.2-.3-.4-.5-.6s-.5-.2-.8-.2-.6,0-.8.2-.4.3-.5.6c-.1.2-.2.5-.2.8h0c0,.4,0,.7.2.9.1.3.3.5.6.6.3.1.5.2.9.2s.5,0,.7-.1.4-.2.6-.4l.2.3c-.2.2-.4.4-.7.5-.3.1-.5.2-.9.2"/>
      <path class="st4" d="M107.9,39.9c-.4,0-.7,0-1-.3s-.5-.4-.7-.7c-.2-.3-.3-.7-.3-1.1s0-.8.3-1.1c.2-.3.4-.5.7-.7.3-.2.6-.3,1-.3s.6,0,.9.2c.3.1.5.3.6.6l-.3.2c-.1-.2-.3-.4-.5-.5-.2,0-.4-.1-.7-.1s-.6,0-.8.2c-.2.1-.4.3-.6.6-.1.3-.2.5-.2.9s0,.6.2.9c.1.3.3.5.6.6.2.1.5.2.8.2s.5,0,.7-.1c.2,0,.4-.2.5-.5l.3.2c-.2.2-.4.4-.6.6-.3.1-.6.2-.9.2"/>
      <path class="st4" d="M110.5,39.9v-5.7h.4v2.8h0c.1-.4.3-.7.6-.9.3-.2.6-.3,1-.3s.6,0,.9.2c.2.1.4.3.6.6.1.3.2.6.2.9v2.3h-.4v-2.3c0-.5-.1-.8-.3-1-.2-.2-.5-.4-1-.4s-.6,0-.8.2c-.2.1-.4.3-.5.5-.1.2-.2.5-.2.8v2.1h-.4,0Z"/>
      <path class="st4" d="M115.6,39.9v-4h.4v1.1h0c.1-.4.3-.7.6-.9.3-.2.6-.3,1-.3s.6,0,.9.2c.2.1.4.3.6.6.1.3.2.6.2.9v2.3h-.4v-2.3c0-.5-.1-.8-.3-1-.2-.2-.5-.4-1-.4s-.6,0-.8.2c-.2.1-.4.3-.5.5-.1.2-.2.5-.2.8v2.1h-.4Z"/>
      <path class="st4" d="M122.3,39.6c.3,0,.6,0,.8-.2s.4-.3.6-.6c.1-.3.2-.6.2-.9s0-.6-.2-.9c-.1-.3-.3-.5-.6-.6-.2-.1-.5-.2-.8-.2s-.6,0-.8.2c-.2.1-.4.3-.6.6-.1.3-.2.5-.2.9s0,.6.2.9c.1.3.3.5.6.6.2.1.5.2.8.2M122.3,39.9c-.4,0-.7,0-1-.3-.3-.2-.5-.4-.7-.7-.2-.3-.3-.7-.3-1.1s0-.8.3-1.1c.2-.3.4-.5.7-.7s.6-.3,1-.3.7,0,1,.3c.3.2.5.4.7.7.2.3.3.7.3,1.1s0,.7-.3,1.1c-.2.3-.4.5-.7.7-.3.2-.6.3-1,.3"/>
    </g>
    <rect class="st4" x="125.5" y="34.2" width=".4" height="5.7"/>
    <g>
      <path class="st4" d="M129,39.6c.3,0,.6,0,.8-.2s.4-.3.6-.6c.1-.3.2-.6.2-.9s0-.6-.2-.9c-.1-.3-.3-.5-.6-.6-.2-.1-.5-.2-.8-.2s-.6,0-.8.2c-.2.1-.4.3-.6.6-.1.3-.2.5-.2.9s0,.6.2.9c.1.3.3.5.6.6.2.1.5.2.8.2M129,39.9c-.4,0-.7,0-1-.3-.3-.2-.5-.4-.7-.7-.2-.3-.3-.7-.3-1.1s0-.8.3-1.1c.2-.3.4-.5.7-.7s.6-.3,1-.3.7,0,1,.3c.3.2.5.4.7.7s.3.7.3,1.1,0,.7-.3,1.1c-.2.3-.4.5-.7.7-.3.2-.6.3-1,.3"/>
      <path class="st4" d="M133.8,39.4c.3,0,.6,0,.8-.2.2-.1.4-.3.6-.6s.2-.5.2-.8,0-.6-.2-.8-.3-.4-.6-.6c-.2-.1-.5-.2-.8-.2s-.6,0-.8.2c-.2.1-.4.3-.6.6-.1.2-.2.5-.2.8s0,.6.2.8c.1.2.3.4.6.6.2.1.5.2.8.2M133.9,41.4c-.4,0-.7,0-1-.2s-.6-.3-.8-.5l.2-.3c.2.2.4.3.7.4s.6.2.9.2c.5,0,.9-.1,1.2-.4.3-.3.4-.6.4-1.2v-1.7c0,0,0-.6,0-.6v-1.3h.4v3.6c0,.7-.2,1.2-.5,1.5-.3.3-.8.5-1.4.5M133.8,39.8c-.4,0-.7,0-1-.3-.3-.2-.5-.4-.7-.7-.2-.3-.3-.6-.3-1s0-.7.3-1c.2-.3.4-.5.7-.7.3-.2.6-.2,1-.2s.7,0,1,.2c.3.2.5.4.7.7.2.3.3.6.3,1s0,.7-.3,1c-.2.3-.4.5-.7.7-.3.2-.6.2-1,.2"/>
      <path class="st4" d="M137.4,35.9h.4v4h-.4v-4ZM137.6,34.9c0,0-.2,0-.2,0s0-.1,0-.2,0-.2,0-.2.1,0,.2,0,.2,0,.2,0c0,0,0,.1,0,.2s0,.2,0,.2-.1,0-.2,0"/>
      <path class="st4" d="M141,39.9c-.4,0-.8,0-1.1-.3-.3-.2-.5-.4-.7-.7-.2-.3-.3-.7-.3-1.1s0-.8.2-1.1c.2-.3.4-.5.7-.7.3-.2.6-.3,1-.3s.7,0,1,.3.5.4.7.7c.2.3.2.7.2,1.1s0,0,0,0c0,0,0,0,0,0h-3.5v-.3h3.3-.2c0-.2,0-.4-.2-.7-.1-.2-.3-.4-.5-.6-.2-.1-.5-.2-.8-.2s-.6,0-.8.2c-.2.1-.4.3-.5.6-.1.2-.2.5-.2.8h0c0,.4,0,.7.2.9.1.3.3.5.6.6.3.1.5.2.9.2s.5,0,.7-.1.4-.2.6-.4l.2.3c-.2.2-.4.4-.7.5-.3.1-.5.2-.9.2"/>
      <path class="st4" d="M145,39.9c-.3,0-.6,0-.9-.1-.3,0-.5-.2-.7-.4l.2-.3c.2.1.4.2.6.3.3,0,.5.1.8.1s.7,0,.9-.2c.2-.1.3-.3.3-.5s0-.3-.1-.4c0,0-.2-.2-.4-.2-.2,0-.3,0-.5-.1-.2,0-.4,0-.6-.1-.2,0-.4,0-.5-.2-.2,0-.3-.2-.4-.3,0-.1-.1-.3-.1-.5s0-.4.2-.6c.1-.2.3-.3.5-.4.2,0,.5-.1.8-.1s.5,0,.8.1c.3,0,.5.2.6.3l-.2.3c-.2-.1-.4-.2-.6-.3-.2,0-.4,0-.6,0-.4,0-.7,0-.9.2-.2.1-.3.3-.3.5s0,.3.1.4c0,.1.2.2.4.2.2,0,.3,0,.5.1s.4,0,.6.1c.2,0,.4,0,.5.2.2,0,.3.2.4.3,0,.1.1.3.1.5s0,.4-.2.6c-.1.2-.3.3-.5.4s-.5.1-.9.1"/>
    </g>
    <path class="st2" d="M37.1,42.6v.3h-.1l-1.6,3.7c-12.4-5.9-20.4-3.7-29.3-.2l-1.3-4.1c4.2-1.7,8-2.8,11.7-3.3.7,0,1.4-.2,2.1-.2,5.8-.4,11.6.8,18.5,3.9Z"/>
    <path class="st3" d="M24.3,24h0v3.1c-.1.1-1.6,1.6-1.7,1.6s-.1,0-.3,0c-.2,0-.9-.5-1.1-.7-.8-.6-1.3-1.2-1.4-2.2l2.3-1.3.2-2.8,3.3-2.4-4.8,1.1v3.2h-3.5v-3.2l-4.7-1.1,3.3,2.4v2.8c.4.3,2.3.9,2.4,1.3,0,.2,0,.7-.2.9-.4,1.1-1.4,1.7-2.5,2l-1.7-1.7v-3.1c-.1,0-3.7-2.9-3.7-2.9l2.2-4.4c1.4,0,3-.2,4.3.1.9.2,1.7.8,2.3,1.4.9-.7,1.9-1.5,3.1-1.6,1.1,0,2.4,0,3.5,0l1.3-15.6C6.5,6.6.5,30.2,4.6,39c11.3-4.5,20.9-4.8,32.4.3,1-2.3,1.1-8.5-1.2-12.8-2.2-4.2-7.7-5.4-11.5-2.5h0ZM15.7,31.4l3.3-2.5,3.3,2.4c-.1,3.5-6.1,3.6-6.6.2h0Z"/>
  </g>
</svg>